<svg height="512pt" viewBox="0 -70 512 511" width="512pt" xmlns="http://www.w3.org/2000/svg"><path style="fill:#D6D6D6" d="m512 154.804688-56.929688-23.554688-49.9375-68.40625c-28.496093-39.039062-74.363281-62.34375-122.695312-62.34375h-219.269531l-46.167969 140.601562v105.773438c-10.621094 13.179688-17 29.917969-17 48.125 0 42.363281 34.46875 76.832031 76.835938 76.832031 33.519531 0 62.078124-21.589843 72.550781-51.585937h159.894531c10.472656 29.996094 39.03125 51.585937 72.554688 51.585937 33.519531 0 62.078124-21.589843 72.550781-51.585937h57.613281zm-130.164062 187.027343c-25.824219 0-46.835938-21.007812-46.835938-46.832031s21.011719-46.835938 46.835938-46.835938c25.820312 0 46.832031 21.011719 46.832031 46.835938s-21.011719 46.832031-46.832031 46.832031zm0-123.667969c-40.769532 0-74.210938 31.921876-76.675782 72.082032h-60.953125l-79.046875-131.746094h277.300782l39.539062 16.359375v17.640625h-23.332031v30h23.332031v67.746094h-23.496094c-2.464844-40.160156-35.902344-72.082032-76.667968-72.082032zm-305 123.667969c-25.824219 0-46.835938-21.007812-46.835938-46.832031s21.011719-46.835938 46.835938-46.835938c25.820312 0 46.832031 21.011719 46.832031 46.835938s-21.011719 46.832031-46.832031 46.832031zm0-123.667969c-10.578126 0-20.660157 2.148438-29.835938 6.03125v-55.03125h27.667969v-30h-25.457031l35.683593-108.664062h59.074219l-21.070312 115.875 86.324218 143.871094h-55.714844c-2.46875-40.160156-35.90625-72.082032-76.671874-72.082032zm205.601562-187.664062c38.785156 0 75.59375 18.703125 98.464844 50.03125l35.015625 47.96875h-259.277344l17.816406-98zm0 0"/></svg>
