<svg height="512pt" viewBox="0 -30 512 512" width="512pt" xmlns="http://www.w3.org/2000/svg"><path style="fill:#D6D6D6" d="m435.835938 294.40625-44.75-264.40625h46.246093v-30h-81.75l40.554688 239.628906c-27.792969 7.667969-52.859375 24.082032-71.09375 46.671875-9.714844 12.035157-17.28125 25.601563-22.476563 40.035157h-160.113281c-14.40625-19.402344-37.484375-32-63.453125-32-43.5625 0-79 35.4375-79 79 0 43.558593 35.4375 79 79 79 25.96875 0 49.046875-12.601563 63.453125-32h181.878906v-47c0-7.320313.730469-14.503907 2.117188-21.5 3.382812-17.007813 10.789062-32.878907 21.9375-46.695313 10.707031-13.261719 24.414062-23.796875 39.753906-30.78125 4.230469-1.921875 8.585937-3.574219 13.039063-4.9375l5.007812 29.601563c-30.402344 11.003906-52.1875 40.15625-52.1875 74.3125 0 43.558593 35.4375 79 79 79s79-35.441407 79-79c0-42.613282-33.914062-77.429688-76.164062-78.929688zm-2.835938 127.929688c-27.019531 0-49-21.984376-49-49 0-19.242188 11.152344-35.921876 27.332031-43.933594l9.210938 54.433594 29.578125-5.007813-9.109375-53.828125c23.21875 3.835938 40.988281 24.042969 40.988281 48.335938 0 27.015624-21.980469 49-49 49zm-138.667969-32h-138.195312c1.207031-5.480469 1.863281-11.164063 1.863281-17 0-5.839844-.65625-11.523438-1.863281-17h138.199219v34zm-215.332031 32c-27.019531 0-49-21.984376-49-49 0-27.019532 21.980469-49 49-49 21.785156 0 40.289062 14.296874 46.640625 34h-50.976563v30h50.976563c-6.351563 19.699218-24.855469 34-46.640625 34zm0 0"/></svg>
