<svg height="512pt" viewBox="0 -81 512 512" width="512pt" xmlns="http://www.w3.org/2000/svg"><path style="fill:#D6D6D6"
   d="m401.316406 128.632812c-5.621094 0-11.148437.425782-16.546875 1.238282l-17.769531-53.304688v-76.566406h-79v30h49v40.507812l-149.183594 89.511719c-7-6.808593-14.890625-12.703125-23.480468-17.484375v-37.867187h42.664062v-68.582031l-78.636719-25.421876h-2.363281c-24.8125 0-45 20.1875-45 45v49h53.335938v26.519532c-7.625-1.664063-15.535157-2.550782-23.652344-2.550782-61.03125 0-110.683594 49.652344-110.683594 110.683594s49.652344 110.683594 110.683594 110.683594c56.054687 0 102.503906-41.886719 109.707031-96h71.21875c7.207031 54.113281 53.65625 96 109.707031 96 61.03125 0 110.683594-49.652344 110.683594-110.683594s-49.652344-110.683594-110.683594-110.683594zm-290.316406-72.964843c0-7.605469 5.6875-13.90625 13.03125-14.871094l52.96875 17.117187v16.753907h-66zm290.316406 264.332031c-39.472656 0-72.394531-28.5-79.320312-66h104.148437l-31.683593-95.054688c2.261718-.191406 4.542968-.3125 6.855468-.3125 44.488282 0 80.683594 36.195313 80.683594 80.683594 0 44.488282-36.195312 80.683594-80.683594 80.683594zm-35.785156-152.96875 18.992188 56.96875h-62.414063c4.828125-25.015625 21.242187-45.945312 43.421875-56.96875zm-73.832031 56.96875h-71.398438c-2.011719-14.460938-6.820312-28.039062-13.875-40.164062l137.257813-82.351563 12.289062 36.871094c-34.027344 15.339843-58.957031 47.398437-64.273437 85.644531zm-181.015625 96c-39.472656 0-72.394532-28.5-79.320313-66h158.640625c-6.929687 37.5-39.847656 66-79.320312 66zm-3.746094-96h-75.460938c7.179688-37.1875 39.957032-65.367188 79.207032-65.367188 6.84375 0 13.492187.863282 19.839844 2.476563zm32.042969 0 18.800781-50.132812c16.367188 11.8125 28.144531 29.59375 32.109375 50.132812zm0 0"/></svg>
